PathFileType	4	(X/Y/Z)	Patient4_TMGait_0pt5_01_left_13.trc.trc
DataRate	CameraRate	NumFrames	NumMarkers	Units	OrigDataRate	OrigDataStartFrame	OrigNumFrames
74.866310160428	74.866310160428	4	33	mm	74.866310160428	71	       141
Frame#	Time	L.ASIS			Sacral			L.Shoulder			Chest			R.Shoulder			Neck			R.ASIS			R.Thigh.Superior			R.Thigh.Lateral			R.Thigh.Inferior			R.Patella			L.Thigh.Superior			L.Thigh.Lateral			L.Thigh.Inferior			L.Patella			L.Shank.Superior			L.Shank.Lateral			L.Shank.Inferior			R.Shank.Superior			R.Shank.Lateral			R.Shank.Inferior			R.Heel			R.Midfoot.Superior			R.Midfoot.Lateral			R.Toe			L.Heel			L.Midfoot.Lateral			L.Midfoot.Superior			L.Toe			L.Elbow			L.Wrist			R.Elbow			R.Wrist			
		X1	Y1	Z1	X2	Y2	Z2	X3	Y3	Z3	X4	Y4	Z4	X5	Y5	Z5	X6	Y6	Z6	X7	Y7	Z7	X8	Y8	Z8	X9	Y9	Z9	X10	Y10	Z10	X11	Y11	Z11	X12	Y12	Z12	X13	Y13	Z13	X14	Y14	Z14	X15	Y15	Z15	X16	Y16	Z16	X17	Y17	Z17	X18	Y18	Z18	X19	Y19	Z19	X20	Y20	Z20	X21	Y21	Z21	X22	Y22	Z22	X23	Y23	Z23	X24	Y24	Z24	X25	Y25	Z25	X26	Y26	Z26	X27	Y27	Z27	X28	Y28	Z28	X29	Y29	Z29	X30	Y30	Z30	X31	Y31	Z31	X32	Y32	Z32	X33	Y33	Z33	

71	18.265000000000	779.243341234804	957.986816813101	291.635293987984	557.597959234185	1008.160990082603	433.068313218051	754.283399159865	1435.400918848428	268.597458040280	840.475182189949	1360.244330494738	437.308564565791	744.217866201001	1433.851597316537	606.049354933563	743.441904796661	1495.776402064405	420.205862532969	774.167962498896	942.116174194265	567.125524838382	847.390885140595	769.289235550847	539.939850656495	802.536254607095	649.553259135664	614.371980592990	890.377926301949	609.079732990963	534.516561726937	923.429373261171	522.409506016963	553.967270936596	787.627306731755	732.439711915383	323.188469530031	675.440999394613	637.014105189203	258.669926321159	733.652175347621	545.640769490998	326.743596179685	719.465862562146	479.544687585393	337.386004525326	690.095730674334	413.597372299142	329.247158846029	596.412900690504	303.575825190395	278.872742929518	637.522916139577	191.772033582308	354.677035641971	900.636363501607	434.916098364219	563.035423647355	838.688526934518	325.813882311692	625.952569364776	901.331237515994	234.685008629908	575.405251819208	795.682175943417	52.880049475232	545.982487543197	960.537559602049	122.036522028726	591.346293586370	878.213771970850	47.766488395276	622.036704424433	1082.168070287466	79.969122002995	619.858862851710	500.713098129396	39.365593482443	397.958724612247	575.299362483869	35.217746943694	318.105365292561	659.335468001866	95.359462491949	344.759696869762	787.300880400412	40.627586973334	317.969845461268	796.102889518538	1100.848101620161	114.241929453885	1040.561828849014	1014.404789905428	106.885614871796	595.075232248613	1120.765666378630	706.732717335600	560.522564442954	862.660305804634	718.132622572992	
72	18.278357142857	780.639389149139	956.967671172250	293.683379109108	558.769864191714	1006.615799574968	434.701485138894	754.438821442048	1434.269108895141	270.751110393283	840.409942112647	1359.435625514778	439.677500810291	743.632422929833	1432.956104287151	608.180929210884	743.034576139369	1494.599776735621	422.347191082618	775.187363405541	940.706658586035	569.293116315408	847.204971252819	766.715311313716	542.654345132371	800.770258052224	646.944827000885	616.377675246191	889.091821838859	606.437291229391	537.075654531177	921.727174474512	520.949592452612	555.602758875989	786.494044173926	730.855975337199	324.839853659721	673.278780223125	636.685645234296	259.641390834631	730.153412164237	544.608608931937	327.745400012568	715.440830192932	478.611826169592	338.044197754658	685.441411629285	413.069611466194	329.827131288837	590.992616726643	303.719125389723	279.216219184197	631.475110734554	191.551682969193	354.887456746162	901.054607298689	433.529927274441	564.529473337071	841.501712238781	322.692013010229	626.746084120323	906.874115806334	233.270266092566	576.178395860826	805.868507146930	49.192360104682	545.808834783865	969.247335602960	121.493408102608	591.680672742755	888.349146341881	45.502435578526	621.967923108468	1091.714382470178	81.793695206282	620.226174272187	493.995560024923	39.458347441736	397.973552606404	568.537762419130	35.288986523631	318.121227920041	652.586144516967	95.372512767763	344.801542478285	780.456605743728	40.588706664047	317.992698648009	797.302755368723	1100.136869844833	116.228351427402	1042.937149069553	1017.771251162451	108.892367953168	590.006076049241	1122.303159229967	707.057931107974	551.493881037059	864.624774225486	717.991100873935	
73	18.291714285714	782.292330872339	955.849118723819	295.865646482831	560.178185567314	1004.815175462894	436.609519077481	754.439520443088	1433.008253940391	273.087411865173	840.318565301090	1358.564388179310	442.194358432111	742.990134680641	1431.873075124444	610.482600322170	742.517945933369	1493.281380824603	424.681234635496	776.488972059949	939.152189379745	571.587870253953	847.639190958055	764.144710691893	545.441925574538	799.538354661092	644.227004530091	618.170810145046	888.469263427310	603.845915010153	539.550178077031	920.435073393210	519.147907964805	557.088965799390	785.709368446122	729.200762670540	326.601886332200	671.543273160971	636.218579221316	260.793974622724	727.130184873213	543.466279843275	328.940826186329	711.922105271483	477.498922155239	338.933316877885	681.220786682392	412.350293083613	330.594803579315	585.874671689310	303.805893084365	279.673503428836	625.544261889766	191.213426399884	355.179568373406	901.277672423926	431.681098089122	565.815924012564	843.231037775202	319.659900649746	627.251996934892	910.486701861442	231.519724873174	576.641915426139	812.514346733850	46.450797761190	545.363060560779	974.946301454745	120.273684578727	591.529534133188	894.843053139257	43.563081610226	621.644485192525	1097.817892296673	81.843805061485	620.251961964849	487.268830221959	39.478680958252	397.993928378375	561.775577382805	35.337428785873	318.143709652037	645.809951336275	95.385878301866	344.877645796369	773.609671387492	40.550524010360	318.019534431010	798.155705309990	1099.165619022361	118.502179096873	1044.734664571005	1020.320591706712	111.122595970983	586.051262684603	1123.090873855472	707.634639650098	544.331368939368	865.756815415604	717.833686562293	
74	18.305071428571	784.168973281815	954.640380654261	298.183377078515	561.796733097710	1002.799044451350	438.782858553425	754.307845043111	1431.642255443449	275.611577694123	840.218633678028	1357.645066396448	444.864599204985	742.300590234565	1430.610891550723	612.959257655428	741.920115913272	1491.845893011796	427.211347912837	778.063801870107	937.488853764317	573.995977321187	848.734935226944	761.658397848155	548.232453812259	798.927841451868	641.491180006795	619.714499298233	888.565518720717	601.395652985290	541.867535139883	919.644352511971	517.087599779864	558.377813752082	785.317033999671	727.490365218835	328.468969545663	670.268785642513	635.604513656471	262.150651972762	724.644600095338	542.208982330671	330.341601700810	708.975719228373	476.184413066024	340.073901046778	677.491645790397	411.409485581063	331.572769182420	581.100647190823	303.827206538455	280.267390714946	619.740616366090	190.739806524385	355.564607291999	901.413693157494	429.427972033303	566.870889485689	844.029829552951	316.728554549567	627.522657099463	912.315263412362	229.407585407661	576.807369053119	815.740193558420	44.499606163342	544.736288819027	977.792333145885	118.377955150423	590.930226709281	897.866741625956	41.876191889046	621.149507528353	1100.712189783593	80.178137340484	619.947364929846	480.527268882888	39.412687036262	398.011822433432	555.017365963880	35.346371639942	318.172861602784	639.013965035227	95.393422852388	344.987578906649	766.780392164385	40.510520085575	318.046789347583	798.641365283850	1097.938209923176	121.066250709211	1045.955100199899	1022.020741581309	113.569969589335	583.201787730906	1123.084554521603	708.510407979531	539.067570927204	865.989748854086	717.751869229404	
